<svg version="1.1" xmlns="http://www.w3.org/2000/svg" xmlns:xlink="http://www.w3.org/1999/xlink" width="2114.4599609375" height="1844"><defs/><g><g transform="translate(-38,-366) scale(1,1)"><rect fill="#C0C0C0" stroke="none" x="263" y="383" width="662.4" height="15" opacity="0.2"/></g><g transform="translate(-38,-366) scale(1,1)"><rect fill="#C0C0C0" stroke="none" x="263" y="397" width="1656" height="1810" opacity="0.2"/></g><g transform="translate(-38,-366) scale(1,1)"><rect fill="#ffffff" stroke="none" x="256" y="391" width="1656" height="1809"/></g><g transform="translate(-38,-366) scale(1,1)"><path fill="none" stroke="#000000" d="M 256 391 L 1912 391 L 1912 2200 L 256 2200 L 256 391 Z Z" stroke-miterlimit="10"/></g><g transform="translate(-38,-366) scale(1,1)"><rect fill="#ffffff" stroke="none" x="256" y="376" width="662.4" height="15"/></g><g transform="translate(-38,-366) scale(1,1)"><path fill="none" stroke="#000000" d="M 256 376 L 918.4 376 L 918.4 391 L 256 391 L 256 376 Z Z" stroke-miterlimit="10"/></g><g transform="translate(-38,-366) scale(1,1)"><rect fill="#ffffff" stroke="none" x="256" y="390" width="1656" height="1810"/></g><g transform="translate(-38,-366) scale(1,1)"><path fill="none" stroke="#000000" d="M 256 390 L 1912 390 L 1912 2200 L 256 2200 L 256 390 Z Z" stroke-miterlimit="10"/></g><g transform="translate(-38,-366) scale(1,1)"><g><path fill="none" stroke="none"/><text fill="#000000" stroke="none" font-family="Arial" font-size="13px" font-style="normal" font-weight="bold" text-decoration="none" x="1057.619140625" y="410.5">Hệ thống</text></g></g><g transform="translate(-38,-366) scale(1,1)"><path fill="#ffffff" stroke="none" d="M 2082.5275143821023 505.68 C 2082.5275143821023 500.886167936 2086.4133567070476 497 2091.206787109375 497 C 2096.0002175117024 497 2099.8860598366477 500.886167936 2099.8860598366477 505.68 C 2099.8860598366477 510.473832064 2096.0002175117024 514.36 2091.206787109375 514.36 C 2086.4133567070476 514.36 2082.5275143821023 510.473832064 2082.5275143821023 505.68 Z"/></g><g transform="translate(-38,-366) scale(1,1)"><path fill="none" stroke="#000000" d="M 2082.5275143821023 505.68 C 2082.5275143821023 500.886167936 2086.4133567070476 497 2091.206787109375 497 C 2096.0002175117024 497 2099.8860598366477 500.886167936 2099.8860598366477 505.68 C 2099.8860598366477 510.473832064 2096.0002175117024 514.36 2091.206787109375 514.36 C 2086.4133567070476 514.36 2082.5275143821023 510.473832064 2082.5275143821023 505.68 Z" stroke-miterlimit="10"/></g><g transform="translate(-38,-366) scale(1,1)"><path fill="none" stroke="#000000" d="M 2091.206787109375 514.36 L 2091.206787109375 531.64" stroke-miterlimit="10"/></g><g transform="translate(-38,-366) scale(1,1)"><path fill="none" stroke="#000000" d="M 2082.0169689275567 520.84 L 2100.3966052911933 520.84" stroke-miterlimit="10"/></g><g transform="translate(-38,-366) scale(1,1)"><path fill="none" stroke="#000000" d="M 2091.206787109375 531.64 L 2078.4431507457384 549" stroke-miterlimit="10"/></g><g transform="translate(-38,-366) scale(1,1)"><path fill="none" stroke="#000000" d="M 2091.206787109375 531.64 L 2103.9704234730116 549" stroke-miterlimit="10"/></g><g transform="translate(-38,-366) scale(1,1)"><g><path fill="none" stroke="none"/><text fill="#000000" stroke="none" font-family="Arial" font-size="13px" font-style="normal" font-weight="bold" text-decoration="none" x="2062.302734375" y="569.5">Employee</text></g></g><g transform="translate(-38,-366) scale(1,1)"><path fill="#ffffff" stroke="none" d="M 2080.4093503196023 785.6800000000001 C 2080.4093503196023 780.8861679360001 2084.2951926445476 777 2089.088623046875 777 C 2093.8820534492024 777 2097.7678957741477 780.8861679360001 2097.7678957741477 785.6800000000001 C 2097.7678957741477 790.473832064 2093.8820534492024 794.36 2089.088623046875 794.36 C 2084.2951926445476 794.36 2080.4093503196023 790.473832064 2080.4093503196023 785.6800000000001 Z"/></g><g transform="translate(-38,-366) scale(1,1)"><path fill="none" stroke="#000000" d="M 2080.4093503196023 785.6800000000001 C 2080.4093503196023 780.8861679360001 2084.2951926445476 777 2089.088623046875 777 C 2093.8820534492024 777 2097.7678957741477 780.8861679360001 2097.7678957741477 785.6800000000001 C 2097.7678957741477 790.473832064 2093.8820534492024 794.36 2089.088623046875 794.36 C 2084.2951926445476 794.36 2080.4093503196023 790.473832064 2080.4093503196023 785.6800000000001 Z" stroke-miterlimit="10"/></g><g transform="translate(-38,-366) scale(1,1)"><path fill="none" stroke="#000000" d="M 2089.088623046875 794.36 L 2089.088623046875 811.64" stroke-miterlimit="10"/></g><g transform="translate(-38,-366) scale(1,1)"><path fill="none" stroke="#000000" d="M 2079.8988048650567 800.84 L 2098.2784412286933 800.84" stroke-miterlimit="10"/></g><g transform="translate(-38,-366) scale(1,1)"><path fill="none" stroke="#000000" d="M 2089.088623046875 811.64 L 2076.3249866832384 829" stroke-miterlimit="10"/></g><g transform="translate(-38,-366) scale(1,1)"><path fill="none" stroke="#000000" d="M 2089.088623046875 811.64 L 2101.8522594105116 829" stroke-miterlimit="10"/></g><g transform="translate(-38,-366) scale(1,1)"><g><path fill="none" stroke="none"/><text fill="#000000" stroke="none" font-family="Arial" font-size="13px" font-style="normal" font-weight="bold" text-decoration="none" x="2080.779541015625" y="849.5">DL</text></g></g><g transform="translate(-38,-366) scale(1,1)"><path fill="#ffffff" stroke="none" d="M 2088.4093503196023 1393.6799999999998 C 2088.4093503196023 1388.8861679359998 2092.2951926445476 1385 2097.088623046875 1385 C 2101.8820534492024 1385 2105.7678957741477 1388.8861679359998 2105.7678957741477 1393.6799999999998 C 2105.7678957741477 1398.473832064 2101.8820534492024 1402.36 2097.088623046875 1402.36 C 2092.2951926445476 1402.36 2088.4093503196023 1398.473832064 2088.4093503196023 1393.6799999999998 Z"/></g><g transform="translate(-38,-366) scale(1,1)"><path fill="none" stroke="#000000" d="M 2088.4093503196023 1393.6799999999998 C 2088.4093503196023 1388.8861679359998 2092.2951926445476 1385 2097.088623046875 1385 C 2101.8820534492024 1385 2105.7678957741477 1388.8861679359998 2105.7678957741477 1393.6799999999998 C 2105.7678957741477 1398.473832064 2101.8820534492024 1402.36 2097.088623046875 1402.36 C 2092.2951926445476 1402.36 2088.4093503196023 1398.473832064 2088.4093503196023 1393.6799999999998 Z" stroke-miterlimit="10"/></g><g transform="translate(-38,-366) scale(1,1)"><path fill="none" stroke="#000000" d="M 2097.088623046875 1402.36 L 2097.088623046875 1419.64" stroke-miterlimit="10"/></g><g transform="translate(-38,-366) scale(1,1)"><path fill="none" stroke="#000000" d="M 2087.8988048650567 1408.84 L 2106.2784412286933 1408.84" stroke-miterlimit="10"/></g><g transform="translate(-38,-366) scale(1,1)"><path fill="none" stroke="#000000" d="M 2097.088623046875 1419.64 L 2084.3249866832384 1437" stroke-miterlimit="10"/></g><g transform="translate(-38,-366) scale(1,1)"><path fill="none" stroke="#000000" d="M 2097.088623046875 1419.64 L 2109.8522594105116 1437" stroke-miterlimit="10"/></g><g transform="translate(-38,-366) scale(1,1)"><g><path fill="none" stroke="none"/><text fill="#000000" stroke="none" font-family="Arial" font-size="13px" font-style="normal" font-weight="bold" text-decoration="none" x="2091.312255859375" y="1457.5">IT</text></g></g><g transform="translate(-38,-366) scale(1,1)"><path fill="#ffffff" stroke="none" d="M 2088.7711667258523 1137.6799999999998 C 2088.7711667258523 1132.8861679359998 2092.6570090507976 1129 2097.450439453125 1129 C 2102.2438698554524 1129 2106.1297121803977 1132.8861679359998 2106.1297121803977 1137.6799999999998 C 2106.1297121803977 1142.473832064 2102.2438698554524 1146.36 2097.450439453125 1146.36 C 2092.6570090507976 1146.36 2088.7711667258523 1142.473832064 2088.7711667258523 1137.6799999999998 Z"/></g><g transform="translate(-38,-366) scale(1,1)"><path fill="none" stroke="#000000" d="M 2088.7711667258523 1137.6799999999998 C 2088.7711667258523 1132.8861679359998 2092.6570090507976 1129 2097.450439453125 1129 C 2102.2438698554524 1129 2106.1297121803977 1132.8861679359998 2106.1297121803977 1137.6799999999998 C 2106.1297121803977 1142.473832064 2102.2438698554524 1146.36 2097.450439453125 1146.36 C 2092.6570090507976 1146.36 2088.7711667258523 1142.473832064 2088.7711667258523 1137.6799999999998 Z" stroke-miterlimit="10"/></g><g transform="translate(-38,-366) scale(1,1)"><path fill="none" stroke="#000000" d="M 2097.450439453125 1146.36 L 2097.450439453125 1163.64" stroke-miterlimit="10"/></g><g transform="translate(-38,-366) scale(1,1)"><path fill="none" stroke="#000000" d="M 2088.2606212713067 1152.84 L 2106.6402576349433 1152.84" stroke-miterlimit="10"/></g><g transform="translate(-38,-366) scale(1,1)"><path fill="none" stroke="#000000" d="M 2097.450439453125 1163.64 L 2084.6868030894884 1181" stroke-miterlimit="10"/></g><g transform="translate(-38,-366) scale(1,1)"><path fill="none" stroke="#000000" d="M 2097.450439453125 1163.64 L 2110.2140758167616 1181" stroke-miterlimit="10"/></g><g transform="translate(-38,-366) scale(1,1)"><g><path fill="none" stroke="none"/><text fill="#000000" stroke="none" font-family="Arial" font-size="13px" font-style="normal" font-weight="bold" text-decoration="none" x="2078.426513671875" y="1201.5">Officer</text></g></g><g transform="translate(-38,-366) scale(1,1)"><path fill="#ffffff" stroke="none" d="M 2102.5507077414773 1745.6799999999998 C 2102.5507077414773 1740.8861679359998 2106.4365500664226 1737 2111.22998046875 1737 C 2116.0234108710774 1737 2119.9092531960227 1740.8861679359998 2119.9092531960227 1745.6799999999998 C 2119.9092531960227 1750.473832064 2116.0234108710774 1754.36 2111.22998046875 1754.36 C 2106.4365500664226 1754.36 2102.5507077414773 1750.473832064 2102.5507077414773 1745.6799999999998 Z"/></g><g transform="translate(-38,-366) scale(1,1)"><path fill="none" stroke="#000000" d="M 2102.5507077414773 1745.6799999999998 C 2102.5507077414773 1740.8861679359998 2106.4365500664226 1737 2111.22998046875 1737 C 2116.0234108710774 1737 2119.9092531960227 1740.8861679359998 2119.9092531960227 1745.6799999999998 C 2119.9092531960227 1750.473832064 2116.0234108710774 1754.36 2111.22998046875 1754.36 C 2106.4365500664226 1754.36 2102.5507077414773 1750.473832064 2102.5507077414773 1745.6799999999998 Z" stroke-miterlimit="10"/></g><g transform="translate(-38,-366) scale(1,1)"><path fill="none" stroke="#000000" d="M 2111.22998046875 1754.36 L 2111.22998046875 1771.64" stroke-miterlimit="10"/></g><g transform="translate(-38,-366) scale(1,1)"><path fill="none" stroke="#000000" d="M 2102.0401622869317 1760.84 L 2120.4197986505683 1760.84" stroke-miterlimit="10"/></g><g transform="translate(-38,-366) scale(1,1)"><path fill="none" stroke="#000000" d="M 2111.22998046875 1771.64 L 2098.4663441051134 1789" stroke-miterlimit="10"/></g><g transform="translate(-38,-366) scale(1,1)"><path fill="none" stroke="#000000" d="M 2111.22998046875 1771.64 L 2123.9936168323866 1789" stroke-miterlimit="10"/></g><g transform="translate(-38,-366) scale(1,1)"><g><path fill="none" stroke="none"/><text fill="#000000" stroke="none" font-family="Arial" font-size="13px" font-style="normal" font-weight="bold" text-decoration="none" x="2085.575927734375" y="1809.5">Manager</text></g></g><g transform="translate(-38,-366) scale(1,1)"><path fill="#C0C0C0" stroke="none" d="M 631 568 C 631 558.6111584 663.2354944 551 703 551 C 742.7645056 551 775 558.6111584 775 568 C 775 577.3888416 742.7645056 585 703 585 C 663.2354944 585 631 577.3888416 631 568 Z" opacity="0.2"/></g><g transform="translate(-38,-366) scale(1,1)"><path fill="#ffffff" stroke="none" d="M 624 561 C 624 551.6111584 656.2354944 544 696 544 C 735.7645056 544 768 551.6111584 768 561 C 768 570.3888416 735.7645056 578 696 578 C 656.2354944 578 624 570.3888416 624 561 Z"/></g><g transform="translate(-38,-366) scale(1,1)"><path fill="none" stroke="#000000" d="M 624 561 C 624 551.6111584 656.2354944 544 696 544 C 735.7645056 544 768 551.6111584 768 561 C 768 570.3888416 735.7645056 578 696 578 C 656.2354944 578 624 570.3888416 624 561 Z" stroke-miterlimit="10"/></g><g transform="translate(-38,-366) scale(1,1)"><g><path fill="none" stroke="none"/><text fill="#000000" stroke="none" font-family="Arial" font-size="13px" font-style="normal" font-weight="bold" text-decoration="none" x="652.267822265625" y="568">Tạo phòng ban</text></g></g><g transform="translate(-38,-366) scale(1,1)"><path fill="#C0C0C0" stroke="none" d="M 583 2048 C 583 2038.6111584 639.6359728 2031 709.5 2031 C 779.3640272 2031 836 2038.6111584 836 2048 C 836 2057.3888416 779.3640272 2065 709.5 2065 C 639.6359728 2065 583 2057.3888416 583 2048 Z" opacity="0.2"/></g><g transform="translate(-38,-366) scale(1,1)"><path fill="#ffffff" stroke="none" d="M 576 2041 C 576 2031.6111584 632.6359728 2024 702.5 2024 C 772.3640272 2024 829 2031.6111584 829 2041 C 829 2050.3888416 772.3640272 2058 702.5 2058 C 632.6359728 2058 576 2050.3888416 576 2041 Z"/></g><g transform="translate(-38,-366) scale(1,1)"><path fill="none" stroke="#000000" d="M 576 2041 C 576 2031.6111584 632.6359728 2024 702.5 2024 C 772.3640272 2024 829 2031.6111584 829 2041 C 829 2050.3888416 772.3640272 2058 702.5 2058 C 632.6359728 2058 576 2050.3888416 576 2041 Z" stroke-miterlimit="10"/></g><g transform="translate(-38,-366) scale(1,1)"><g><path fill="none" stroke="none"/><text fill="#000000" stroke="none" font-family="Arial" font-size="13px" font-style="normal" font-weight="bold" text-decoration="none" x="622.998779296875" y="2048">Cấu hình module nhân viên</text></g></g><g transform="translate(-38,-366) scale(1,1)"><path fill="#C0C0C0" stroke="none" d="M 575 1848 C 575 1838.6111584 627.3826784 1831 692 1831 C 756.6173216 1831 809 1838.6111584 809 1848 C 809 1857.3888416 756.6173216 1865 692 1865 C 627.3826784 1865 575 1857.3888416 575 1848 Z" opacity="0.2"/></g><g transform="translate(-38,-366) scale(1,1)"><path fill="#ffffff" stroke="none" d="M 568 1841 C 568 1831.6111584 620.3826784 1824 685 1824 C 749.6173216 1824 802 1831.6111584 802 1841 C 802 1850.3888416 749.6173216 1858 685 1858 C 620.3826784 1858 568 1850.3888416 568 1841 Z"/></g><g transform="translate(-38,-366) scale(1,1)"><path fill="none" stroke="#000000" d="M 568 1841 C 568 1831.6111584 620.3826784 1824 685 1824 C 749.6173216 1824 802 1831.6111584 802 1841 C 802 1850.3888416 749.6173216 1858 685 1858 C 620.3826784 1858 568 1850.3888416 568 1841 Z" stroke-miterlimit="10"/></g><g transform="translate(-38,-366) scale(1,1)"><g><path fill="none" stroke="none"/><text fill="#000000" stroke="none" font-family="Arial" font-size="13px" font-style="normal" font-weight="bold" text-decoration="none" x="612.354248046875" y="1848">Sửa thông tin chấm công</text></g></g><g transform="translate(-38,-366) scale(1,1)"><path fill="#C0C0C0" stroke="none" d="M 623 728 C 623 718.6111584 653.4446336 711 691 711 C 728.5553664 711 759 718.6111584 759 728 C 759 737.3888416 728.5553664 745 691 745 C 653.4446336 745 623 737.3888416 623 728 Z" opacity="0.2"/></g><g transform="translate(-38,-366) scale(1,1)"><path fill="#ffffff" stroke="none" d="M 616 721 C 616 711.6111584 646.4446336 704 684 704 C 721.5553664 704 752 711.6111584 752 721 C 752 730.3888416 721.5553664 738 684 738 C 646.4446336 738 616 730.3888416 616 721 Z"/></g><g transform="translate(-38,-366) scale(1,1)"><path fill="none" stroke="#000000" d="M 616 721 C 616 711.6111584 646.4446336 704 684 704 C 721.5553664 704 752 711.6111584 752 721 C 752 730.3888416 721.5553664 738 684 738 C 646.4446336 738 616 730.3888416 616 721 Z" stroke-miterlimit="10"/></g><g transform="translate(-38,-366) scale(1,1)"><g><path fill="none" stroke="none"/><text fill="#000000" stroke="none" font-family="Arial" font-size="13px" font-style="normal" font-weight="bold" text-decoration="none" x="642.8037109375" y="728">Tạo nhân viên</text></g></g><g transform="translate(-38,-366) scale(1,1)"><path fill="none" stroke="#000000" d="M 2079 1779 L 1635 1833" stroke-miterlimit="10"/></g><g transform="translate(-38,-366) scale(1,1)"><path fill="none" stroke="#000000" d="M 1644.5801129278987 1827.5943144478513 L 1635 1833 L 1645.5965597267366 1835.9517659049634" stroke-miterlimit="10"/></g><g transform="translate(-38,-366) scale(1,1)"><path fill="#C0C0C0" stroke="none" d="M 1375 1856 C 1375 1846.6111584 1434.5461215999999 1839 1508 1839 C 1581.4538784000001 1839 1641 1846.6111584 1641 1856 C 1641 1865.3888416 1581.4538784000001 1873 1508 1873 C 1434.5461215999999 1873 1375 1865.3888416 1375 1856 Z" opacity="0.2"/></g><g transform="translate(-38,-366) scale(1,1)"><path fill="#ffffff" stroke="none" d="M 1368 1849 C 1368 1839.6111584 1427.5461215999999 1832 1501 1832 C 1574.4538784000001 1832 1634 1839.6111584 1634 1849 C 1634 1858.3888416 1574.4538784000001 1866 1501 1866 C 1427.5461215999999 1866 1368 1858.3888416 1368 1849 Z"/></g><g transform="translate(-38,-366) scale(1,1)"><path fill="none" stroke="#000000" d="M 1368 1849 C 1368 1839.6111584 1427.5461215999999 1832 1501 1832 C 1574.4538784000001 1832 1634 1839.6111584 1634 1849 C 1634 1858.3888416 1574.4538784000001 1866 1501 1866 C 1427.5461215999999 1866 1368 1858.3888416 1368 1849 Z" stroke-miterlimit="10"/></g><g transform="translate(-38,-366) scale(1,1)"><g><path fill="none" stroke="none"/><text fill="#000000" stroke="none" font-family="Arial" font-size="13px" font-style="normal" font-weight="bold" text-decoration="none" x="1418.616943359375" y="1856">Hiển thị thông tin chấm công</text></g></g><g transform="translate(-38,-366) scale(1,1)"><path fill="#C0C0C0" stroke="none" d="M 575 1960 C 575 1950.6111584 626.9349632 1943 691 1943 C 755.0650368 1943 807 1950.6111584 807 1960 C 807 1969.3888416 755.0650368 1977 691 1977 C 626.9349632 1977 575 1969.3888416 575 1960 Z" opacity="0.2"/></g><g transform="translate(-38,-366) scale(1,1)"><path fill="#ffffff" stroke="none" d="M 568 1953 C 568 1943.6111584 619.9349632 1936 684 1936 C 748.0650368 1936 800 1943.6111584 800 1953 C 800 1962.3888416 748.0650368 1970 684 1970 C 619.9349632 1970 568 1962.3888416 568 1953 Z"/></g><g transform="translate(-38,-366) scale(1,1)"><path fill="none" stroke="#000000" d="M 568 1953 C 568 1943.6111584 619.9349632 1936 684 1936 C 748.0650368 1936 800 1943.6111584 800 1953 C 800 1962.3888416 748.0650368 1970 684 1970 C 619.9349632 1970 568 1962.3888416 568 1953 Z" stroke-miterlimit="10"/></g><g transform="translate(-38,-366) scale(1,1)"><g><path fill="none" stroke="none"/><text fill="#000000" stroke="none" font-family="Arial" font-size="13px" font-style="normal" font-weight="bold" text-decoration="none" x="612.090576171875" y="1960">Xóa thông tin chấm công</text></g></g><g transform="translate(-38,-366) scale(1,1)"><path fill="none" stroke="#000000" d="M 2066 856 L 1511 1831" stroke-miterlimit="10"/></g><g transform="translate(-38,-366) scale(1,1)"><path fill="none" stroke="#000000" d="M 1512.369115427114 1820.0855360668863 L 1511 1831 L 1519.68580226286 1824.2504193426187" stroke-miterlimit="10"/></g><g transform="translate(-38,-366) scale(1,1)"><path fill="none" stroke="#000000" d="M 2073 576 L 1509 1831" stroke-miterlimit="10"/></g><g transform="translate(-38,-366) scale(1,1)"><path fill="none" stroke="#000000" d="M 1509.3261875446349 1820.004837350647 L 1509 1831 L 1517.0054034943564 1823.4558953551434" stroke-miterlimit="10"/></g><g transform="translate(-38,-366) scale(1,1)"><path fill="none" stroke="#000000" d="M 2071 1442 L 1526 1831" stroke-miterlimit="10"/></g><g transform="translate(-38,-366) scale(1,1)"><path fill="none" stroke="#000000" d="M 1531.8262162433637 1821.669662155872 L 1526 1831 L 1536.717302174686 1828.5222118539973" stroke-miterlimit="10"/></g><g transform="translate(-38,-366) scale(1,1)"><path fill="none" stroke="#000000" d="M 2071 1197 L 1517 1831" stroke-miterlimit="10"/></g><g transform="translate(-38,-366) scale(1,1)"><path fill="none" stroke="#000000" d="M 1520.5171968776033 1820.5774606681396 L 1517 1831 L 1526.8568820016635 1826.1171855241796" stroke-miterlimit="10"/></g><g transform="translate(-38,-366) scale(1,1)"><path fill="#C0C0C0" stroke="none" d="M 575 2144 C 575 2134.6111584 632.0836879999999 2127 702.5 2127 C 772.9163120000001 2127 830 2134.6111584 830 2144 C 830 2153.3888416 772.9163120000001 2161 702.5 2161 C 632.0836879999999 2161 575 2153.3888416 575 2144 Z" opacity="0.2"/></g><g transform="translate(-38,-366) scale(1,1)"><path fill="#ffffff" stroke="none" d="M 568 2137 C 568 2127.6111584 625.0836879999999 2120 695.5 2120 C 765.9163120000001 2120 823 2127.6111584 823 2137 C 823 2146.3888416 765.9163120000001 2154 695.5 2154 C 625.0836879999999 2154 568 2146.3888416 568 2137 Z"/></g><g transform="translate(-38,-366) scale(1,1)"><path fill="none" stroke="#000000" d="M 568 2137 C 568 2127.6111584 625.0836879999999 2120 695.5 2120 C 765.9163120000001 2120 823 2127.6111584 823 2137 C 823 2146.3888416 765.9163120000001 2154 695.5 2154 C 625.0836879999999 2154 568 2146.3888416 568 2137 Z" stroke-miterlimit="10"/></g><g transform="translate(-38,-366) scale(1,1)"><g><path fill="none" stroke="none"/><text fill="#000000" stroke="none" font-family="Arial" font-size="13px" font-style="normal" font-weight="bold" text-decoration="none" x="615.6337890625" y="2144">Cấu hình module nghỉ phép</text></g></g><g transform="translate(-38,-366) scale(1,1)"><path fill="#C0C0C0" stroke="none" d="M 575 896 C 575 886.6111584 624.0248144 879 684.5 879 C 744.9751856 879 794 886.6111584 794 896 C 794 905.3888416 744.9751856 913 684.5 913 C 624.0248144 913 575 905.3888416 575 896 Z" opacity="0.2"/></g><g transform="translate(-38,-366) scale(1,1)"><path fill="#ffffff" stroke="none" d="M 568 889 C 568 879.6111584 617.0248144 872 677.5 872 C 737.9751856 872 787 879.6111584 787 889 C 787 898.3888416 737.9751856 906 677.5 906 C 617.0248144 906 568 898.3888416 568 889 Z"/></g><g transform="translate(-38,-366) scale(1,1)"><path fill="none" stroke="#000000" d="M 568 889 C 568 879.6111584 617.0248144 872 677.5 872 C 737.9751856 872 787 879.6111584 787 889 C 787 898.3888416 737.9751856 906 677.5 906 C 617.0248144 906 568 898.3888416 568 889 Z" stroke-miterlimit="10"/></g><g transform="translate(-38,-366) scale(1,1)"><g><path fill="none" stroke="none"/><text fill="#000000" stroke="none" font-family="Arial" font-size="13px" font-style="normal" font-weight="bold" text-decoration="none" x="608.83740234375" y="896">Xem báo cáo nghỉ phép</text></g></g><g transform="translate(-38,-366) scale(1,1)"><path fill="#C0C0C0" stroke="none" d="M 1391 1688 C 1391 1678.6111584 1455.2471312 1671 1534.5 1671 C 1613.7528688 1671 1678 1678.6111584 1678 1688 C 1678 1697.3888416 1613.7528688 1705 1534.5 1705 C 1455.2471312 1705 1391 1697.3888416 1391 1688 Z" opacity="0.2"/></g><g transform="translate(-38,-366) scale(1,1)"><path fill="#ffffff" stroke="none" d="M 1384 1681 C 1384 1671.6111584 1448.2471312 1664 1527.5 1664 C 1606.7528688 1664 1671 1671.6111584 1671 1681 C 1671 1690.3888416 1606.7528688 1698 1527.5 1698 C 1448.2471312 1698 1384 1690.3888416 1384 1681 Z"/></g><g transform="translate(-38,-366) scale(1,1)"><path fill="none" stroke="#000000" d="M 1384 1681 C 1384 1671.6111584 1448.2471312 1664 1527.5 1664 C 1606.7528688 1664 1671 1671.6111584 1671 1681 C 1671 1690.3888416 1606.7528688 1698 1527.5 1698 C 1448.2471312 1698 1384 1690.3888416 1384 1681 Z" stroke-miterlimit="10"/></g><g transform="translate(-38,-366) scale(1,1)"><g><path fill="none" stroke="none"/><text fill="#000000" stroke="none" font-family="Arial" font-size="13px" font-style="normal" font-weight="bold" text-decoration="none" x="1438.607421875" y="1688">Hiển thị yêu cầu cấp ngày nghỉ</text></g></g><g transform="translate(-38,-366) scale(1,1)"><path fill="#C0C0C0" stroke="none" d="M 519 1696 C 519 1686.6111584 595.5592991999999 1679 690 1679 C 784.4407008000001 1679 861 1686.6111584 861 1696 C 861 1705.3888416 784.4407008000001 1713 690 1713 C 595.5592991999999 1713 519 1705.3888416 519 1696 Z" opacity="0.2"/></g><g transform="translate(-38,-366) scale(1,1)"><path fill="#ffffff" stroke="none" d="M 512 1689 C 512 1679.6111584 588.5592991999999 1672 683 1672 C 777.4407008000001 1672 854 1679.6111584 854 1689 C 854 1698.3888416 777.4407008000001 1706 683 1706 C 588.5592991999999 1706 512 1698.3888416 512 1689 Z"/></g><g transform="translate(-38,-366) scale(1,1)"><path fill="none" stroke="#000000" d="M 512 1689 C 512 1679.6111584 588.5592991999999 1672 683 1672 C 777.4407008000001 1672 854 1679.6111584 854 1689 C 854 1698.3888416 777.4407008000001 1706 683 1706 C 588.5592991999999 1706 512 1698.3888416 512 1689 Z" stroke-miterlimit="10"/></g><g transform="translate(-38,-366) scale(1,1)"><g><path fill="none" stroke="none"/><text fill="#000000" stroke="none" font-family="Arial" font-size="13px" font-style="normal" font-weight="bold" text-decoration="none" x="574.229736328125" y="1696">Duyệt yêu cầu cấp số ngày nghỉ phép</text></g></g><g transform="translate(-38,-366) scale(1,1)"><path fill="#C0C0C0" stroke="none" d="M 1383 1376 C 1383 1366.6111584 1438.2928272 1359 1506.5 1359 C 1574.7071728 1359 1630 1366.6111584 1630 1376 C 1630 1385.3888416 1574.7071728 1393 1506.5 1393 C 1438.2928272 1393 1383 1385.3888416 1383 1376 Z" opacity="0.2"/></g><g transform="translate(-38,-366) scale(1,1)"><path fill="#ffffff" stroke="none" d="M 1376 1369 C 1376 1359.6111584 1431.2928272 1352 1499.5 1352 C 1567.7071728 1352 1623 1359.6111584 1623 1369 C 1623 1378.3888416 1567.7071728 1386 1499.5 1386 C 1431.2928272 1386 1376 1378.3888416 1376 1369 Z"/></g><g transform="translate(-38,-366) scale(1,1)"><path fill="none" stroke="#000000" d="M 1376 1369 C 1376 1359.6111584 1431.2928272 1352 1499.5 1352 C 1567.7071728 1352 1623 1359.6111584 1623 1369 C 1623 1378.3888416 1567.7071728 1386 1499.5 1386 C 1431.2928272 1386 1376 1378.3888416 1376 1369 Z" stroke-miterlimit="10"/></g><g transform="translate(-38,-366) scale(1,1)"><g><path fill="none" stroke="none"/><text fill="#000000" stroke="none" font-family="Arial" font-size="13px" font-style="normal" font-weight="bold" text-decoration="none" x="1428.3173828125" y="1376">HIển thị yêu cầu xin nghỉ</text></g></g><g transform="translate(-38,-366) scale(1,1)"><path fill="#C0C0C0" stroke="none" d="M 1391 1200 C 1391 1190.6111584 1434.4283744 1183 1488 1183 C 1541.5716256 1183 1585 1190.6111584 1585 1200 C 1585 1209.3888416 1541.5716256 1217 1488 1217 C 1434.4283744 1217 1391 1209.3888416 1391 1200 Z" opacity="0.2"/></g><g transform="translate(-38,-366) scale(1,1)"><path fill="#ffffff" stroke="none" d="M 1384 1193 C 1384 1183.6111584 1427.4283744 1176 1481 1176 C 1534.5716256 1176 1578 1183.6111584 1578 1193 C 1578 1202.3888416 1534.5716256 1210 1481 1210 C 1427.4283744 1210 1384 1202.3888416 1384 1193 Z"/></g><g transform="translate(-38,-366) scale(1,1)"><path fill="none" stroke="#000000" d="M 1384 1193 C 1384 1183.6111584 1427.4283744 1176 1481 1176 C 1534.5716256 1176 1578 1183.6111584 1578 1193 C 1578 1202.3888416 1534.5716256 1210 1481 1210 C 1427.4283744 1210 1384 1202.3888416 1384 1193 Z" stroke-miterlimit="10"/></g><g transform="translate(-38,-366) scale(1,1)"><g><path fill="none" stroke="none"/><text fill="#000000" stroke="none" font-family="Arial" font-size="13px" font-style="normal" font-weight="bold" text-decoration="none" x="1421.017822265625" y="1200">Tạo yêu cầu xin nghỉ</text></g></g><g transform="translate(-38,-366) scale(1,1)"><path fill="#ffffff" stroke="none" d="M 73.08024875710227 1273.6799999999998 C 73.08024875710227 1268.8861679359998 76.96609108204773 1265 81.759521484375 1265 C 86.55295188670227 1265 90.43879421164773 1268.8861679359998 90.43879421164773 1273.6799999999998 C 90.43879421164773 1278.473832064 86.55295188670227 1282.36 81.759521484375 1282.36 C 76.96609108204773 1282.36 73.08024875710227 1278.473832064 73.08024875710227 1273.6799999999998 Z"/></g><g transform="translate(-38,-366) scale(1,1)"><path fill="none" stroke="#000000" d="M 73.08024875710227 1273.6799999999998 C 73.08024875710227 1268.8861679359998 76.96609108204773 1265 81.759521484375 1265 C 86.55295188670227 1265 90.43879421164773 1268.8861679359998 90.43879421164773 1273.6799999999998 C 90.43879421164773 1278.473832064 86.55295188670227 1282.36 81.759521484375 1282.36 C 76.96609108204773 1282.36 73.08024875710227 1278.473832064 73.08024875710227 1273.6799999999998 Z" stroke-miterlimit="10"/></g><g transform="translate(-38,-366) scale(1,1)"><path fill="none" stroke="#000000" d="M 81.759521484375 1282.36 L 81.759521484375 1299.64" stroke-miterlimit="10"/></g><g transform="translate(-38,-366) scale(1,1)"><path fill="none" stroke="#000000" d="M 72.56970330255682 1288.84 L 90.94933966619318 1288.84" stroke-miterlimit="10"/></g><g transform="translate(-38,-366) scale(1,1)"><path fill="none" stroke="#000000" d="M 81.759521484375 1299.64 L 68.99588512073863 1317" stroke-miterlimit="10"/></g><g transform="translate(-38,-366) scale(1,1)"><path fill="none" stroke="#000000" d="M 81.759521484375 1299.64 L 94.52315784801137 1317" stroke-miterlimit="10"/></g><g transform="translate(-38,-366) scale(1,1)"><g><path fill="none" stroke="none"/><text fill="#000000" stroke="none" font-family="Arial" font-size="13px" font-style="normal" font-weight="bold" text-decoration="none" x="56.10546875" y="1337.5">Manager</text></g></g><g transform="translate(-38,-366) scale(1,1)"><path fill="#C0C0C0" stroke="none" d="M 1423 728 C 1423 718.6111584 1445.8334752 711 1474 711 C 1502.1665248 711 1525 718.6111584 1525 728 C 1525 737.3888416 1502.1665248 745 1474 745 C 1445.8334752 745 1423 737.3888416 1423 728 Z" opacity="0.2"/></g><g transform="translate(-38,-366) scale(1,1)"><path fill="#ffffff" stroke="none" d="M 1416 721 C 1416 711.6111584 1438.8334752 704 1467 704 C 1495.1665248 704 1518 711.6111584 1518 721 C 1518 730.3888416 1495.1665248 738 1467 738 C 1438.8334752 738 1416 730.3888416 1416 721 Z"/></g><g transform="translate(-38,-366) scale(1,1)"><path fill="none" stroke="#000000" d="M 1416 721 C 1416 711.6111584 1438.8334752 704 1467 704 C 1495.1665248 704 1518 711.6111584 1518 721 C 1518 730.3888416 1495.1665248 738 1467 738 C 1438.8334752 738 1416 730.3888416 1416 721 Z" stroke-miterlimit="10"/></g><g transform="translate(-38,-366) scale(1,1)"><g><path fill="none" stroke="none"/><text fill="#000000" stroke="none" font-family="Arial" font-size="13px" font-style="normal" font-weight="bold" text-decoration="none" x="1437.369140625" y="728">Đăng xuất</text></g></g><g transform="translate(-38,-366) scale(1,1)"><path fill="#C0C0C0" stroke="none" d="M 1047 1176 C 1047 1166.6111584 1071.1766208 1159 1101 1159 C 1130.8233792 1159 1155 1166.6111584 1155 1176 C 1155 1185.3888416 1130.8233792 1193 1101 1193 C 1071.1766208 1193 1047 1185.3888416 1047 1176 Z" opacity="0.2"/></g><g transform="translate(-38,-366) scale(1,1)"><path fill="#ffffff" stroke="none" d="M 1040 1169 C 1040 1159.6111584 1064.1766208 1152 1094 1152 C 1123.8233792 1152 1148 1159.6111584 1148 1169 C 1148 1178.3888416 1123.8233792 1186 1094 1186 C 1064.1766208 1186 1040 1178.3888416 1040 1169 Z"/></g><g transform="translate(-38,-366) scale(1,1)"><path fill="none" stroke="#000000" d="M 1040 1169 C 1040 1159.6111584 1064.1766208 1152 1094 1152 C 1123.8233792 1152 1148 1159.6111584 1148 1169 C 1148 1178.3888416 1123.8233792 1186 1094 1186 C 1064.1766208 1186 1040 1178.3888416 1040 1169 Z" stroke-miterlimit="10"/></g><g transform="translate(-38,-366) scale(1,1)"><g><path fill="none" stroke="none"/><text fill="#000000" stroke="none" font-family="Arial" font-size="13px" font-style="normal" font-weight="bold" text-decoration="none" x="1062.195068359375" y="1176">Đăng nhập</text></g></g><g transform="translate(-38,-366) scale(1,1)"><path fill="#C0C0C0" stroke="none" d="M 1343 1024 C 1343 1014.6111584 1396.2781088 1007 1462 1007 C 1527.7218912 1007 1581 1014.6111584 1581 1024 C 1581 1033.3888416 1527.7218912 1041 1462 1041 C 1396.2781088 1041 1343 1033.3888416 1343 1024 Z" opacity="0.2"/></g><g transform="translate(-38,-366) scale(1,1)"><path fill="#ffffff" stroke="none" d="M 1336 1017 C 1336 1007.6111584 1389.2781088 1000 1455 1000 C 1520.7218912 1000 1574 1007.6111584 1574 1017 C 1574 1026.3888416 1520.7218912 1034 1455 1034 C 1389.2781088 1034 1336 1026.3888416 1336 1017 Z"/></g><g transform="translate(-38,-366) scale(1,1)"><path fill="none" stroke="#000000" d="M 1336 1017 C 1336 1007.6111584 1389.2781088 1000 1455 1000 C 1520.7218912 1000 1574 1007.6111584 1574 1017 C 1574 1026.3888416 1520.7218912 1034 1455 1034 C 1389.2781088 1034 1336 1026.3888416 1336 1017 Z" stroke-miterlimit="10"/></g><g transform="translate(-38,-366) scale(1,1)"><g><path fill="none" stroke="none"/><text fill="#000000" stroke="none" font-family="Arial" font-size="13px" font-style="normal" font-weight="bold" text-decoration="none" x="1381.281494140625" y="1024">Hiển thị thông tin cá nhân</text></g></g><g transform="translate(-38,-366) scale(1,1)"><path fill="none" stroke="#000000" d="M 2071 1149 L 1492 739" stroke-miterlimit="10"/></g><g transform="translate(-38,-366) scale(1,1)"><path fill="none" stroke="#000000" d="M 1502.726516310975 741.4375905789088 L 1492 739 L 1497.8611555938958 748.3084292501015" stroke-miterlimit="10"/></g><g transform="translate(-38,-366) scale(1,1)"><path fill="none" stroke="#000000" d="M 2071 1161 L 1532 1035" stroke-miterlimit="10"/></g><g transform="translate(-38,-366) scale(1,1)"><path fill="none" stroke="#000000" d="M 1542.8540926337103 1033.2143143896992 L 1532 1035 L 1540.9376729090345 1041.4123321008126" stroke-miterlimit="10"/></g><g transform="translate(-38,-366) scale(1,1)"><path fill="none" stroke="#000000" d="M 2071 1168 L 1579 1189" stroke-miterlimit="10"/></g><g transform="translate(-38,-366) scale(1,1)"><path fill="none" stroke="#000000" d="M 1588.9739190498572 1184.3609334142636 L 1579 1189 L 1589.3329412363098 1192.7723103540097" stroke-miterlimit="10"/></g><g transform="translate(-38,-366) scale(1,1)"><path fill="none" stroke="#000000" d="M 2071 1176 L 1552 1351" stroke-miterlimit="10"/></g><g transform="translate(-38,-366) scale(1,1)"><path fill="none" stroke="#000000" d="M 1560.2849765204269 1343.7640367568667 L 1552 1351 L 1562.9749617572013 1351.741764401929" stroke-miterlimit="10"/></g><g transform="translate(-38,-366) scale(1,1)"><path fill="none" stroke="#000000" d="M 2063 811 L 1519 729" stroke-miterlimit="10"/></g><g transform="translate(-38,-366) scale(1,1)"><path fill="none" stroke="#000000" d="M 1529.6765869558794 726.3522668235746 L 1519 729 L 1528.4217171202533 734.6772569526072" stroke-miterlimit="10"/></g><g transform="translate(-38,-366) scale(1,1)"><path fill="none" stroke="#000000" d="M 2063 823 L 1511 999" stroke-miterlimit="10"/></g><g transform="translate(-38,-366) scale(1,1)"><path fill="none" stroke="#000000" d="M 1519.4036901273719 991.9022544253044 L 1511 999 L 1521.9611703030591 999.9234422490509" stroke-miterlimit="10"/></g><g transform="translate(-38,-366) scale(1,1)"><path fill="none" stroke="#000000" d="M 2063 831 L 1510 1175" stroke-miterlimit="10"/></g><g transform="translate(-38,-366) scale(1,1)"><path fill="none" stroke="#000000" d="M 1516.405826351935 1166.0576631270762 L 1510 1175 L 1520.8527902950557 1173.2064162100578" stroke-miterlimit="10"/></g><g transform="translate(-38,-366) scale(1,1)"><path fill="none" stroke="#000000" d="M 2063 839 L 1518 1351" stroke-miterlimit="10"/></g><g transform="translate(-38,-366) scale(1,1)"><path fill="none" stroke="#000000" d="M 1522.5245963276268 1340.9736333563935 L 1518 1351 L 1528.2890845897534 1347.10966090104" stroke-miterlimit="10"/></g><g transform="translate(-38,-366) scale(1,1)"><path fill="none" stroke="#000000" d="M 2063 855 L 1539 1663" stroke-miterlimit="10"/></g><g transform="translate(-38,-366) scale(1,1)"><path fill="none" stroke="#000000" d="M 1540.9977960885308 1652.1829389024258 L 1539 1663 L 1548.061472416232 1656.7638379070243" stroke-miterlimit="10"/></g><g transform="translate(-38,-366) scale(1,1)"><path fill="none" stroke="#000000" d="M 2055 546 L 1519 706" stroke-miterlimit="10"/></g><g transform="translate(-38,-366) scale(1,1)"><path fill="none" stroke="#000000" d="M 1527.5339966484069 699.0594739965202 L 1519 706 L 1529.942139902774 707.1267538986497" stroke-miterlimit="10"/></g><g transform="translate(-38,-366) scale(1,1)"><path fill="none" stroke="#000000" d="M 2055 562 L 1479 999" stroke-miterlimit="10"/></g><g transform="translate(-38,-366) scale(1,1)"><path fill="none" stroke="#000000" d="M 1484.5519779065128 989.5039196862286 L 1479 999 L 1489.6405840112527 996.2110984421332" stroke-miterlimit="10"/></g><g transform="translate(-38,-366) scale(1,1)"><path fill="none" stroke="#000000" d="M 2055 574 L 1498 1175" stroke-miterlimit="10"/></g><g transform="translate(-38,-366) scale(1,1)"><path fill="none" stroke="#000000" d="M 1501.820614228391 1164.684821527583 L 1498 1175 L 1507.9955148761887 1170.4076495821973" stroke-miterlimit="10"/></g><g transform="translate(-38,-366) scale(1,1)"><path fill="none" stroke="#000000" d="M 2062 576 L 1512 1351" stroke-miterlimit="10"/></g><g transform="translate(-38,-366) scale(1,1)"><path fill="none" stroke="#000000" d="M 1514.4487258402823 1340.2760202462364 L 1512 1351 L 1521.314509452124 1345.1485118417368" stroke-miterlimit="10"/></g><g transform="translate(-38,-366) scale(1,1)"><path fill="none" stroke="#000000" d="M 2071 576 L 1536 1663" stroke-miterlimit="10"/></g><g transform="translate(-38,-366) scale(1,1)"><path fill="none" stroke="#000000" d="M 1536.7109097240952 1652.0229964305286 L 1536 1663 L 1544.2646027478013 1655.740775425637" stroke-miterlimit="10"/></g><g transform="translate(-38,-366) scale(1,1)"><path fill="none" stroke="#000000" d="M 2071 1394 L 1483 739" stroke-miterlimit="10"/></g><g transform="translate(-38,-366) scale(1,1)"><path fill="none" stroke="#000000" d="M 1492.9213716914053 743.7504087993543 L 1483 739 L 1486.656422926233 749.3745154770966" stroke-miterlimit="10"/></g><g transform="translate(-38,-366) scale(1,1)"><path fill="none" stroke="#000000" d="M 2071 1407 L 1483 1035" stroke-miterlimit="10"/></g><g transform="translate(-38,-366) scale(1,1)"><path fill="none" stroke="#000000" d="M 1493.8388452221734 1036.8760155249274 L 1483 1035 L 1489.3376776575428 1043.9907642561177" stroke-miterlimit="10"/></g><g transform="translate(-38,-366) scale(1,1)"><path fill="none" stroke="#000000" d="M 2071 1413 L 1529 1211" stroke-miterlimit="10"/></g><g transform="translate(-38,-366) scale(1,1)"><path fill="none" stroke="#000000" d="M 1539.992891808094 1210.6046144975658 L 1529 1211 L 1537.0527281123075 1218.4935685723995" stroke-miterlimit="10"/></g><g transform="translate(-38,-366) scale(1,1)"><path fill="none" stroke="#000000" d="M 2071 1421 L 1624 1380" stroke-miterlimit="10"/></g><g transform="translate(-38,-366) scale(1,1)"><path fill="none" stroke="#000000" d="M 1634.5046871529883 1376.7363290886115 L 1624 1380 L 1633.7356993531253 1385.1201716871171" stroke-miterlimit="10"/></g><g transform="translate(-38,-366) scale(1,1)"><path fill="none" stroke="#000000" d="M 2071 1435 L 1567 1663" stroke-miterlimit="10"/></g><g transform="translate(-38,-366) scale(1,1)"><path fill="none" stroke="#000000" d="M 1574.5242656133958 1654.9759469730645 L 1567 1663 L 1577.9943215466274 1662.6465969307344" stroke-miterlimit="10"/></g><g transform="translate(-38,-366) scale(1,1)"><path fill="none" stroke="#000000" d="M 2087 1735 L 1478 739" stroke-miterlimit="10"/></g><g transform="translate(-38,-366) scale(1,1)"><path fill="none" stroke="#000000" d="M 1486.8928095863298 745.474406355897 L 1478 739 L 1479.7100693238826 749.8662626007066" stroke-miterlimit="10"/></g><g transform="translate(-38,-366) scale(1,1)"><path fill="none" stroke="#000000" d="M 2079 1738 L 1471 1035" stroke-miterlimit="10"/></g><g transform="translate(-38,-366) scale(1,1)"><path fill="none" stroke="#000000" d="M 1480.8318576063039 1039.9330088191045 L 1471 1035 L 1474.464009197436 1045.4403371727199" stroke-miterlimit="10"/></g><g transform="translate(-38,-366) scale(1,1)"><path fill="none" stroke="#000000" d="M 2079 1745 L 1500 1211" stroke-miterlimit="10"/></g><g transform="translate(-38,-366) scale(1,1)"><path fill="none" stroke="#000000" d="M 1510.3244358268562 1214.7955269538138 L 1500 1211 L 1504.6166357378772 1220.9843214323134" stroke-miterlimit="10"/></g><g transform="translate(-38,-366) scale(1,1)"><path fill="none" stroke="#000000" d="M 2079 1754 L 1526 1387" stroke-miterlimit="10"/></g><g transform="translate(-38,-366) scale(1,1)"><path fill="none" stroke="#000000" d="M 1536.7953136832832 1389.1121558842851 L 1526 1387 L 1532.1399197617843 1396.1269592591864" stroke-miterlimit="10"/></g><g transform="translate(-38,-366) scale(1,1)"><path fill="none" stroke="#000000" d="M 2079 1770 L 1639 1699" stroke-miterlimit="10"/></g><g transform="translate(-38,-366) scale(1,1)"><path fill="none" stroke="#000000" d="M 1649.7034835877014 1696.4631832766618 L 1639 1699 L 1648.3623061348824 1704.7747055194825" stroke-miterlimit="10"/></g><g transform="translate(-38,-366) scale(1,1)"><path fill="#ffffff" stroke="none" d="M 72.77116672585227 769.6800000000001 C 72.77116672585227 764.8861679360001 76.65700905079773 761 81.450439453125 761 C 86.24386985545227 761 90.12971218039773 764.8861679360001 90.12971218039773 769.6800000000001 C 90.12971218039773 774.473832064 86.24386985545227 778.36 81.450439453125 778.36 C 76.65700905079773 778.36 72.77116672585227 774.473832064 72.77116672585227 769.6800000000001 Z"/></g><g transform="translate(-38,-366) scale(1,1)"><path fill="none" stroke="#000000" d="M 72.77116672585227 769.6800000000001 C 72.77116672585227 764.8861679360001 76.65700905079773 761 81.450439453125 761 C 86.24386985545227 761 90.12971218039773 764.8861679360001 90.12971218039773 769.6800000000001 C 90.12971218039773 774.473832064 86.24386985545227 778.36 81.450439453125 778.36 C 76.65700905079773 778.36 72.77116672585227 774.473832064 72.77116672585227 769.6800000000001 Z" stroke-miterlimit="10"/></g><g transform="translate(-38,-366) scale(1,1)"><path fill="none" stroke="#000000" d="M 81.450439453125 778.36 L 81.450439453125 795.64" stroke-miterlimit="10"/></g><g transform="translate(-38,-366) scale(1,1)"><path fill="none" stroke="#000000" d="M 72.26062127130682 784.84 L 90.64025763494318 784.84" stroke-miterlimit="10"/></g><g transform="translate(-38,-366) scale(1,1)"><path fill="none" stroke="#000000" d="M 81.450439453125 795.64 L 68.68680308948863 813" stroke-miterlimit="10"/></g><g transform="translate(-38,-366) scale(1,1)"><path fill="none" stroke="#000000" d="M 81.450439453125 795.64 L 94.21407581676137 813" stroke-miterlimit="10"/></g><g transform="translate(-38,-366) scale(1,1)"><g><path fill="none" stroke="none"/><text fill="#000000" stroke="none" font-family="Arial" font-size="13px" font-style="normal" font-weight="bold" text-decoration="none" x="62.426513671875" y="833.5">Officer</text></g></g><g transform="translate(-38,-366) scale(1,1)"><path fill="none" stroke="#000000" d="M 117 1269 L 665 739" stroke-miterlimit="10"/></g><g transform="translate(-38,-366) scale(1,1)"><path fill="none" stroke="#000000" d="M 660.621400439877 749.0909794317544 L 665 739 L 654.768462573929 743.0392625439441" stroke-miterlimit="10"/></g><g transform="translate(-38,-366) scale(1,1)"><path fill="none" stroke="#000000" d="M 108 796 L 615 730" stroke-miterlimit="10"/></g><g transform="translate(-38,-366) scale(1,1)"><path fill="none" stroke="#000000" d="M 605.4657548670467 735.4861798862922 L 615 730 L 604.3789556125874 727.1375856134003" stroke-miterlimit="10"/></g><g transform="translate(-38,-366) scale(1,1)"><path fill="none" stroke="#000000" d="M 117 1326 L 655 1671" stroke-miterlimit="10"/></g><g transform="translate(-38,-366) scale(1,1)"><path fill="none" stroke="#000000" d="M 644.1728498208973 1669.0576254225416 L 655 1671 L 648.7175149227564 1661.970582452106" stroke-miterlimit="10"/></g><g transform="translate(-38,-366) scale(1,1)"><path fill="none" stroke="#000000" d="M 114 1263 L 681 579" stroke-miterlimit="10"/></g><g transform="translate(-38,-366) scale(1,1)"><path fill="none" stroke="#000000" d="M 677.7551088053575 589.5105033721003 L 681 579 L 671.2734672239596 584.137563640152" stroke-miterlimit="10"/></g><g transform="translate(-38,-366) scale(1,1)"><path fill="none" stroke="#000000" d="M 108 789 L 649 579" stroke-miterlimit="10"/></g><g transform="translate(-38,-366) scale(1,1)"><path fill="none" stroke="#000000" d="M 641.0493142772806 586.6017495708912 L 649 579 L 638.0027675399228 578.7532648808412" stroke-miterlimit="10"/></g><g transform="translate(-38,-366) scale(1,1)"><path fill="none" stroke="#000000" d="M 116 1344 L 687 2023" stroke-miterlimit="10"/></g><g transform="translate(-38,-366) scale(1,1)"><path fill="none" stroke="#000000" d="M 677.2373984408189 2017.9313107417524 L 687 2023 L 683.6809027817148 2012.5126936892464" stroke-miterlimit="10"/></g><g transform="translate(-38,-366) scale(1,1)"><path fill="none" stroke="#000000" d="M 111 1344 L 682 2119" stroke-miterlimit="10"/></g><g transform="translate(-38,-366) scale(1,1)"><path fill="none" stroke="#000000" d="M 672.5828644240269 2113.315146655916 L 682 2119 L 679.3608779245291 2108.3212812252236" stroke-miterlimit="10"/></g><g transform="translate(-38,-366) scale(1,1)"><path fill="none" stroke="#000000" d="M 117 1278 L 651 907" stroke-miterlimit="10"/></g><g transform="translate(-38,-366) scale(1,1)"><path fill="none" stroke="#000000" d="M 645.055723866775 916.2555702823744 L 651 907 L 640.2520855265357 909.3414385473668" stroke-miterlimit="10"/></g><g transform="translate(-38,-366) scale(1,1)"><path fill="none" stroke="#000000" d="M 117 1335 L 665 1823" stroke-miterlimit="10"/></g><g transform="translate(-38,-366) scale(1,1)"><path fill="none" stroke="#000000" d="M 654.6109393464507 1819.3851115180587 L 665 1823 L 660.2099369205308 1813.097712602903" stroke-miterlimit="10"/></g><g transform="translate(-38,-366) scale(1,1)"><path fill="none" stroke="#000000" d="M 117 1341 L 667 1935" stroke-miterlimit="10"/></g><g transform="translate(-38,-366) scale(1,1)"><path fill="none" stroke="#000000" d="M 657.0066184942785 1930.4030090188141 L 667 1935 L 663.18417566617 1924.6830486744702" stroke-miterlimit="10"/></g><g transform="translate(-38,-366) scale(1,1)"><path fill="none" stroke="#000000" d="M 117 1289 L 637 1083" stroke-miterlimit="10"/></g><g transform="translate(-38,-366) scale(1,1)"><path fill="none" stroke="#000000" d="M 629.1021052750237 1090.6565827177137 L 637 1083 L 626.0013235224608 1082.8293666432828" stroke-miterlimit="10"/></g><g transform="translate(-38,-366) scale(1,1)"><path fill="#C0C0C0" stroke="none" d="M 575 1072 C 575 1062.6111584 626.0395328 1055 689 1055 C 751.9604672 1055 803 1062.6111584 803 1072 C 803 1081.3888416 751.9604672 1089 689 1089 C 626.0395328 1089 575 1081.3888416 575 1072 Z" opacity="0.2"/></g><g transform="translate(-38,-366) scale(1,1)"><path fill="#ffffff" stroke="none" d="M 568 1065 C 568 1055.6111584 619.0395328 1048 682 1048 C 744.9604672 1048 796 1055.6111584 796 1065 C 796 1074.3888416 744.9604672 1082 682 1082 C 619.0395328 1082 568 1074.3888416 568 1065 Z"/></g><g transform="translate(-38,-366) scale(1,1)"><path fill="none" stroke="#000000" d="M 568 1065 C 568 1055.6111584 619.0395328 1048 682 1048 C 744.9604672 1048 796 1055.6111584 796 1065 C 796 1074.3888416 744.9604672 1082 682 1082 C 619.0395328 1082 568 1074.3888416 568 1065 Z" stroke-miterlimit="10"/></g><g transform="translate(-38,-366) scale(1,1)"><g><path fill="none" stroke="none"/><text fill="#000000" stroke="none" font-family="Arial" font-size="13px" font-style="normal" font-weight="bold" text-decoration="none" x="610.096923828125" y="1072">Xem báo cáo chấm công</text></g></g><g transform="translate(-38,-366) scale(1,1)"><path fill="none" stroke="#000000" d="M 1455 891 L 1455 999" stroke-miterlimit="10" stroke-dasharray="3"/></g><g transform="translate(-38,-366) scale(1,1)"><path fill="none" stroke="#000000" d="M 1450.7904822439841 988.8373251423759 L 1455 999 L 1459.2095177560159 988.8373251423759" stroke-miterlimit="10"/></g><g transform="translate(-38,-366) scale(1,1)"><g><path fill="none" stroke="none"/><text fill="#000000" stroke="none" font-family="Arial" font-size="13px" font-style="normal" font-weight="normal" text-decoration="none" x="1457.5" y="950.5">«extend»</text></g></g><g transform="translate(-38,-366) scale(1,1)"><path fill="#C0C0C0" stroke="none" d="M 567 1384 C 567 1374.6111584 625.8745488 1367 698.5 1367 C 771.1254512 1367 830 1374.6111584 830 1384 C 830 1393.3888416 771.1254512 1401 698.5 1401 C 625.8745488 1401 567 1393.3888416 567 1384 Z" opacity="0.2"/></g><g transform="translate(-38,-366) scale(1,1)"><path fill="#ffffff" stroke="none" d="M 560 1377 C 560 1367.6111584 618.8745488 1360 691.5 1360 C 764.1254512 1360 823 1367.6111584 823 1377 C 823 1386.3888416 764.1254512 1394 691.5 1394 C 618.8745488 1394 560 1386.3888416 560 1377 Z"/></g><g transform="translate(-38,-366) scale(1,1)"><path fill="none" stroke="#000000" d="M 560 1377 C 560 1367.6111584 618.8745488 1360 691.5 1360 C 764.1254512 1360 823 1367.6111584 823 1377 C 823 1386.3888416 764.1254512 1394 691.5 1394 C 618.8745488 1394 560 1386.3888416 560 1377 Z" stroke-miterlimit="10"/></g><g transform="translate(-38,-366) scale(1,1)"><g><path fill="none" stroke="none"/><text fill="#000000" stroke="none" font-family="Arial" font-size="13px" font-style="normal" font-weight="bold" text-decoration="none" x="610.1865234375" y="1384">Hiển thị thông tin phòng ban</text></g></g><g transform="translate(-38,-366) scale(1,1)"><path fill="none" stroke="#000000" d="M 117 1307 L 559 1361" stroke-miterlimit="10"/></g><g transform="translate(-38,-366) scale(1,1)"><path fill="none" stroke="#000000" d="M 548.4018411871925 1363.946019310614 L 559 1361 L 549.4228198033302 1355.5891202674136" stroke-miterlimit="10"/></g><g transform="translate(-38,-366) scale(1,1)"><path fill="none" stroke="#000000" d="M 108 824 L 672 1359" stroke-miterlimit="10"/></g><g transform="translate(-38,-366) scale(1,1)"><path fill="none" stroke="#000000" d="M 661.729820941257 1355.0600225760347 L 672 1359 L 667.5238714977705 1348.9519019893548" stroke-miterlimit="10"/></g><g transform="translate(-38,-366) scale(1,1)"><path fill="none" stroke="#000000" d="M 108 818 L 653 1199" stroke-miterlimit="10"/></g><g transform="translate(-38,-366) scale(1,1)"><path fill="none" stroke="#000000" d="M 642.2589488232383 1196.627275907699 L 653 1199 L 647.0826991713908 1189.7271605802894" stroke-miterlimit="10"/></g><g transform="translate(-38,-366) scale(1,1)"><path fill="none" stroke="#000000" d="M 117 1298 L 554 1235" stroke-miterlimit="10"/></g><g transform="translate(-38,-366) scale(1,1)"><path fill="none" stroke="#000000" d="M 544.5419692062839 1240.616551745076 L 554 1235 L 543.3406604632637 1232.2836641149206" stroke-miterlimit="10"/></g><g transform="translate(-38,-366) scale(1,1)"><path fill="#C0C0C0" stroke="none" d="M 1039 1576 C 1039 1566.6111584 1088.9202448 1559 1150.5 1559 C 1212.0797552 1559 1262 1566.6111584 1262 1576 C 1262 1585.3888416 1212.0797552 1593 1150.5 1593 C 1088.9202448 1593 1039 1585.3888416 1039 1576 Z" opacity="0.2"/></g><g transform="translate(-38,-366) scale(1,1)"><path fill="#ffffff" stroke="none" d="M 1032 1569 C 1032 1559.6111584 1081.9202448 1552 1143.5 1552 C 1205.0797552 1552 1255 1559.6111584 1255 1569 C 1255 1578.3888416 1205.0797552 1586 1143.5 1586 C 1081.9202448 1586 1032 1578.3888416 1032 1569 Z"/></g><g transform="translate(-38,-366) scale(1,1)"><path fill="none" stroke="#000000" d="M 1032 1569 C 1032 1559.6111584 1081.9202448 1552 1143.5 1552 C 1205.0797552 1552 1255 1559.6111584 1255 1569 C 1255 1578.3888416 1205.0797552 1586 1143.5 1586 C 1081.9202448 1586 1032 1578.3888416 1032 1569 Z" stroke-miterlimit="10"/></g><g transform="translate(-38,-366) scale(1,1)"><g><path fill="none" stroke="none"/><text fill="#000000" stroke="none" font-family="Arial" font-size="13px" font-style="normal" font-weight="bold" text-decoration="none" x="1074.459716796875" y="1576">Sửa thông tin nhân viên</text></g></g><g transform="translate(-38,-366) scale(1,1)"><path fill="#C0C0C0" stroke="none" d="M 1047 1712 C 1047 1702.6111584 1098.7111055999999 1695 1162.5 1695 C 1226.2888944000001 1695 1278 1702.6111584 1278 1712 C 1278 1721.3888416 1226.2888944000001 1729 1162.5 1729 C 1098.7111055999999 1729 1047 1721.3888416 1047 1712 Z" opacity="0.2"/></g><g transform="translate(-38,-366) scale(1,1)"><path fill="#ffffff" stroke="none" d="M 1040 1705 C 1040 1695.6111584 1091.7111055999999 1688 1155.5 1688 C 1219.2888944000001 1688 1271 1695.6111584 1271 1705 C 1271 1714.3888416 1219.2888944000001 1722 1155.5 1722 C 1091.7111055999999 1722 1040 1714.3888416 1040 1705 Z"/></g><g transform="translate(-38,-366) scale(1,1)"><path fill="none" stroke="#000000" d="M 1040 1705 C 1040 1695.6111584 1091.7111055999999 1688 1155.5 1688 C 1219.2888944000001 1688 1271 1695.6111584 1271 1705 C 1271 1714.3888416 1219.2888944000001 1722 1155.5 1722 C 1091.7111055999999 1722 1040 1714.3888416 1040 1705 Z" stroke-miterlimit="10"/></g><g transform="translate(-38,-366) scale(1,1)"><g><path fill="none" stroke="none"/><text fill="#000000" stroke="none" font-family="Arial" font-size="13px" font-style="normal" font-weight="bold" text-decoration="none" x="1086.459716796875" y="1712">Sửa thông tin nhân viên</text></g></g><g transform="translate(-38,-366) scale(1,1)"><path fill="none" stroke="#000000" d="M 1119 1551 L 703 1235" stroke-miterlimit="10" stroke-dasharray="3"/></g><g transform="translate(-38,-366) scale(1,1)"><path fill="none" stroke="#000000" d="M 713.6389281802818 1237.795211472287 L 703 1235 L 708.5463452739292 1244.4993712477385" stroke-miterlimit="10"/></g><g transform="translate(-38,-366) scale(1,1)"><g><path fill="none" stroke="none"/><text fill="#000000" stroke="none" font-family="Arial" font-size="13px" font-style="normal" font-weight="normal" text-decoration="none" x="865.5" y="1422.5">«extend»</text></g></g><g transform="translate(-38,-366) scale(1,1)"><path fill="none" stroke="#000000" d="M 1130 1687 L 716 1395" stroke-miterlimit="10" stroke-dasharray="3"/></g><g transform="translate(-38,-366) scale(1,1)"><path fill="none" stroke="#000000" d="M 726.7310549910056 1397.4175315468497 L 716 1395 L 721.878548802916 1404.2974547039357" stroke-miterlimit="10"/></g><g transform="translate(-38,-366) scale(1,1)"><g><path fill="none" stroke="none"/><text fill="#000000" stroke="none" font-family="Arial" font-size="13px" font-style="normal" font-weight="normal" text-decoration="none" x="878.5" y="1571.5">«extend»</text></g></g><g transform="translate(-38,-366) scale(1,1)"><path fill="#C0C0C0" stroke="none" d="M 1039 1648 C 1039 1638.6111584 1088.4725296 1631 1149.5 1631 C 1210.5274704 1631 1260 1638.6111584 1260 1648 C 1260 1657.3888416 1210.5274704 1665 1149.5 1665 C 1088.4725296 1665 1039 1657.3888416 1039 1648 Z" opacity="0.2"/></g><g transform="translate(-38,-366) scale(1,1)"><path fill="#ffffff" stroke="none" d="M 1032 1641 C 1032 1631.6111584 1081.4725296 1624 1142.5 1624 C 1203.5274704 1624 1253 1631.6111584 1253 1641 C 1253 1650.3888416 1203.5274704 1658 1142.5 1658 C 1081.4725296 1658 1032 1650.3888416 1032 1641 Z"/></g><g transform="translate(-38,-366) scale(1,1)"><path fill="none" stroke="#000000" d="M 1032 1641 C 1032 1631.6111584 1081.4725296 1624 1142.5 1624 C 1203.5274704 1624 1253 1631.6111584 1253 1641 C 1253 1650.3888416 1203.5274704 1658 1142.5 1658 C 1081.4725296 1658 1032 1650.3888416 1032 1641 Z" stroke-miterlimit="10"/></g><g transform="translate(-38,-366) scale(1,1)"><g><path fill="none" stroke="none"/><text fill="#000000" stroke="none" font-family="Arial" font-size="13px" font-style="normal" font-weight="bold" text-decoration="none" x="1100.938720703125" y="1648">Xóa nhân viên</text></g></g><g transform="translate(-38,-366) scale(1,1)"><path fill="#C0C0C0" stroke="none" d="M 1063 1792 C 1063 1782.6111584 1107.77152 1775 1163 1775 C 1218.22848 1775 1263 1782.6111584 1263 1792 C 1263 1801.3888416 1218.22848 1809 1163 1809 C 1107.77152 1809 1063 1801.3888416 1063 1792 Z" opacity="0.2"/></g><g transform="translate(-38,-366) scale(1,1)"><path fill="#ffffff" stroke="none" d="M 1056 1785 C 1056 1775.6111584 1100.77152 1768 1156 1768 C 1211.22848 1768 1256 1775.6111584 1256 1785 C 1256 1794.3888416 1211.22848 1802 1156 1802 C 1100.77152 1802 1056 1794.3888416 1056 1785 Z"/></g><g transform="translate(-38,-366) scale(1,1)"><path fill="none" stroke="#000000" d="M 1056 1785 C 1056 1775.6111584 1100.77152 1768 1156 1768 C 1211.22848 1768 1256 1775.6111584 1256 1785 C 1256 1794.3888416 1211.22848 1802 1156 1802 C 1100.77152 1802 1056 1794.3888416 1056 1785 Z" stroke-miterlimit="10"/></g><g transform="translate(-38,-366) scale(1,1)"><g><path fill="none" stroke="none"/><text fill="#000000" stroke="none" font-family="Arial" font-size="13px" font-style="normal" font-weight="bold" text-decoration="none" x="1114.438720703125" y="1792">Xóa nhân viên</text></g></g><g transform="translate(-38,-366) scale(1,1)"><path fill="none" stroke="#000000" d="M 1122 1623 L 699 1235" stroke-miterlimit="10" stroke-dasharray="3"/></g><g transform="translate(-38,-366) scale(1,1)"><path fill="none" stroke="#000000" d="M 709.3347236259376 1238.767424528174 L 699 1235 L 703.643781726109 1244.9717245890697" stroke-miterlimit="10"/></g><g transform="translate(-38,-366) scale(1,1)"><g><path fill="none" stroke="none"/><text fill="#000000" stroke="none" font-family="Arial" font-size="13px" font-style="normal" font-weight="normal" text-decoration="none" x="862.5" y="1457.5">«extend»</text></g></g><g transform="translate(-38,-366) scale(1,1)"><path fill="none" stroke="#000000" d="M 1135 1767 L 712 1395" stroke-miterlimit="10" stroke-dasharray="3"/></g><g transform="translate(-38,-366) scale(1,1)"><path fill="none" stroke="#000000" d="M 722.4113183127349 1398.550274776818 L 712 1395 L 716.851490410263 1404.8723371497902" stroke-miterlimit="10"/></g><g transform="translate(-38,-366) scale(1,1)"><g><path fill="none" stroke="none"/><text fill="#000000" stroke="none" font-family="Arial" font-size="13px" font-style="normal" font-weight="normal" text-decoration="none" x="876.5" y="1609.5">«extend»</text></g></g><g transform="translate(-38,-366) scale(1,1)"><path fill="none" stroke="#000000" d="M 2067 576 L 1524 1503" stroke-miterlimit="10"/></g><g transform="translate(-38,-366) scale(1,1)"><path fill="none" stroke="#000000" d="M 1525.5042997522821 1492.1033453640448 L 1524 1503 L 1532.7687989411077 1496.3586021704443" stroke-miterlimit="10"/></g><g transform="translate(-38,-366) scale(1,1)"><path fill="none" stroke="#000000" d="M 2063 847 L 1528 1503" stroke-miterlimit="10"/></g><g transform="translate(-38,-366) scale(1,1)"><path fill="none" stroke="#000000" d="M 1531.1607675541484 1492.463893106624 L 1528 1503 L 1537.6851528029051 1497.7848475396804" stroke-miterlimit="10"/></g><g transform="translate(-38,-366) scale(1,1)"><path fill="none" stroke="#000000" d="M 2071 1183 L 1543 1503" stroke-miterlimit="10"/></g><g transform="translate(-38,-366) scale(1,1)"><path fill="none" stroke="#000000" d="M 1549.5092972241603 1494.1326977243616 L 1543 1503 L 1553.8728977778972 1501.3326386380277" stroke-miterlimit="10"/></g><g transform="translate(-38,-366) scale(1,1)"><path fill="none" stroke="#000000" d="M 2079 1761 L 1555 1539" stroke-miterlimit="10"/></g><g transform="translate(-38,-366) scale(1,1)"><path fill="none" stroke="#000000" d="M 1565.9996445154527 1539.0884337812927 L 1555 1539 L 1562.71539110108 1546.8404553539558" stroke-miterlimit="10"/></g><g transform="translate(-38,-366) scale(1,1)"><path fill="none" stroke="#000000" d="M 2071 1427 L 1620 1503" stroke-miterlimit="10"/></g><g transform="translate(-38,-366) scale(1,1)"><path fill="none" stroke="#000000" d="M 1629.3218797680186 1497.1602604860655 L 1620 1503 L 1630.7208838080376 1505.4622449867054" stroke-miterlimit="10"/></g><g transform="translate(-38,-366) scale(1,1)"><path fill="#C0C0C0" stroke="none" d="M 1359 880 C 1359 870.6111584 1405.3385232 863 1462.5 863 C 1519.6614768 863 1566 870.6111584 1566 880 C 1566 889.3888416 1519.6614768 897 1462.5 897 C 1405.3385232 897 1359 889.3888416 1359 880 Z" opacity="0.2"/></g><g transform="translate(-38,-366) scale(1,1)"><path fill="#ffffff" stroke="none" d="M 1352 873 C 1352 863.6111584 1398.3385232 856 1455.5 856 C 1512.6614768 856 1559 863.6111584 1559 873 C 1559 882.3888416 1512.6614768 890 1455.5 890 C 1398.3385232 890 1352 882.3888416 1352 873 Z"/></g><g transform="translate(-38,-366) scale(1,1)"><path fill="none" stroke="#000000" d="M 1352 873 C 1352 863.6111584 1398.3385232 856 1455.5 856 C 1512.6614768 856 1559 863.6111584 1559 873 C 1559 882.3888416 1512.6614768 890 1455.5 890 C 1398.3385232 890 1352 882.3888416 1352 873 Z" stroke-miterlimit="10"/></g><g transform="translate(-38,-366) scale(1,1)"><g><path fill="none" stroke="none"/><text fill="#000000" stroke="none" font-family="Arial" font-size="13px" font-style="normal" font-weight="bold" text-decoration="none" x="1391.518798828125" y="880">Sửa thông tin cá nhân</text></g></g><g transform="translate(-38,-366) scale(1,1)"><path fill="#C0C0C0" stroke="none" d="M 559 1224 C 559 1214.6111584 616.0836879999999 1207 686.5 1207 C 756.9163120000001 1207 814 1214.6111584 814 1224 C 814 1233.3888416 756.9163120000001 1241 686.5 1241 C 616.0836879999999 1241 559 1233.3888416 559 1224 Z" opacity="0.2"/></g><g transform="translate(-38,-366) scale(1,1)"><path fill="#ffffff" stroke="none" d="M 552 1217 C 552 1207.6111584 609.0836879999999 1200 679.5 1200 C 749.9163120000001 1200 807 1207.6111584 807 1217 C 807 1226.3888416 749.9163120000001 1234 679.5 1234 C 609.0836879999999 1234 552 1226.3888416 552 1217 Z"/></g><g transform="translate(-38,-366) scale(1,1)"><path fill="none" stroke="#000000" d="M 552 1217 C 552 1207.6111584 609.0836879999999 1200 679.5 1200 C 749.9163120000001 1200 807 1207.6111584 807 1217 C 807 1226.3888416 749.9163120000001 1234 679.5 1234 C 609.0836879999999 1234 552 1226.3888416 552 1217 Z" stroke-miterlimit="10"/></g><g transform="translate(-38,-366) scale(1,1)"><g><path fill="none" stroke="none"/><text fill="#000000" stroke="none" font-family="Arial" font-size="13px" font-style="normal" font-weight="bold" text-decoration="none" x="600.722412109375" y="1224">Hiển thị thông tin nhân viên</text></g></g><g transform="translate(-38,-366) scale(1,1)"><path fill="none" stroke="#000000" d="M 108 811 L 641 1047" stroke-miterlimit="10"/></g><g transform="translate(-38,-366) scale(1,1)"><path fill="none" stroke="#000000" d="M 630.003202725579 1046.7345763663754 L 641 1047 L 633.4117729271463 1039.0364072247" stroke-miterlimit="10"/></g><g transform="translate(-38,-366) scale(1,1)"><path fill="none" stroke="#000000" d="M 108 803 L 567 872" stroke-miterlimit="10"/></g><g transform="translate(-38,-366) scale(1,1)"><path fill="none" stroke="#000000" d="M 556.3244715208347 874.6519976792089 L 567 872 L 557.5760158769725 866.3265069622915" stroke-miterlimit="10"/></g><g transform="translate(-38,-366) scale(1,1)"><path fill="#C0C0C0" stroke="none" d="M 1383 1528 C 1383 1518.6111584 1444.3369824 1511 1520 1511 C 1595.6630176 1511 1657 1518.6111584 1657 1528 C 1657 1537.3888416 1595.6630176 1545 1520 1545 C 1444.3369824 1545 1383 1537.3888416 1383 1528 Z" opacity="0.2"/></g><g transform="translate(-38,-366) scale(1,1)"><path fill="#ffffff" stroke="none" d="M 1376 1521 C 1376 1511.6111584 1437.3369824 1504 1513 1504 C 1588.6630176 1504 1650 1511.6111584 1650 1521 C 1650 1530.3888416 1588.6630176 1538 1513 1538 C 1437.3369824 1538 1376 1530.3888416 1376 1521 Z"/></g><g transform="translate(-38,-366) scale(1,1)"><path fill="none" stroke="#000000" d="M 1376 1521 C 1376 1511.6111584 1437.3369824 1504 1513 1504 C 1588.6630176 1504 1650 1511.6111584 1650 1521 C 1650 1530.3888416 1588.6630176 1538 1513 1538 C 1437.3369824 1538 1376 1530.3888416 1376 1521 Z" stroke-miterlimit="10"/></g><g transform="translate(-38,-366) scale(1,1)"><g><path fill="none" stroke="none"/><text fill="#000000" stroke="none" font-family="Arial" font-size="13px" font-style="normal" font-weight="bold" text-decoration="none" x="1426.275146484375" y="1528">Tạo yêu cầu cấp số ngày nghỉ</text></g></g><g transform="translate(-38,-366) scale(1,1)"><path fill="none" stroke="#000000" d="M 1490 1831 L 1105 1187" stroke-miterlimit="10" stroke-dasharray="3"/></g><g transform="translate(-38,-366) scale(1,1)"><path fill="none" stroke="#000000" d="M 1113.8277956464653 1193.5627756341541 L 1105 1187 L 1106.6016110102285 1197.882777318861" stroke-miterlimit="10"/></g><g transform="translate(-38,-366) scale(1,1)"><g><path fill="none" stroke="none"/><text fill="#000000" stroke="none" font-family="Arial" font-size="13px" font-style="normal" font-weight="normal" text-decoration="none" x="1243.5" y="1530.5">«include»</text></g></g><g transform="translate(-38,-366) scale(1,1)"><path fill="none" stroke="#000000" d="M 1512 1663 L 1109 1187" stroke-miterlimit="10" stroke-dasharray="3"/></g><g transform="translate(-38,-366) scale(1,1)"><path fill="none" stroke="#000000" d="M 1118.7794120053877 1192.0361791895127 L 1109 1187 L 1112.3539720888516 1197.4762050012016" stroke-miterlimit="10"/></g><g transform="translate(-38,-366) scale(1,1)"><g><path fill="none" stroke="none"/><text fill="#000000" stroke="none" font-family="Arial" font-size="13px" font-style="normal" font-weight="normal" text-decoration="none" x="1259.5" y="1450.5">«include»</text></g></g><g transform="translate(-38,-366) scale(1,1)"><path fill="none" stroke="#000000" d="M 1492 1503 L 1115 1187" stroke-miterlimit="10" stroke-dasharray="3"/></g><g transform="translate(-38,-366) scale(1,1)"><path fill="none" stroke="#000000" d="M 1125.492639223203 1190.3021995899248 L 1115 1187 L 1120.0844086244035 1196.7544240701382" stroke-miterlimit="10"/></g><g transform="translate(-38,-366) scale(1,1)"><g><path fill="none" stroke="none"/><text fill="#000000" stroke="none" font-family="Arial" font-size="13px" font-style="normal" font-weight="normal" text-decoration="none" x="1255.5" y="1373.5">«include»</text></g></g><g transform="translate(-38,-366) scale(1,1)"><path fill="none" stroke="#000000" d="M 1463 1351 L 1130 1187" stroke-miterlimit="10" stroke-dasharray="3"/></g><g transform="translate(-38,-366) scale(1,1)"><path fill="none" stroke="#000000" d="M 1140.9768245908926 1187.713667920518 L 1130 1187 L 1137.257147678002 1195.266426530229" stroke-miterlimit="10"/></g><g transform="translate(-38,-366) scale(1,1)"><g><path fill="none" stroke="none"/><text fill="#000000" stroke="none" font-family="Arial" font-size="13px" font-style="normal" font-weight="normal" text-decoration="none" x="1254.5" y="1301.5">«include»</text></g></g><g transform="translate(-38,-366) scale(1,1)"><path fill="none" stroke="#000000" d="M 1383 1187 L 1149 1172" stroke-miterlimit="10" stroke-dasharray="3"/></g><g transform="translate(-38,-366) scale(1,1)"><path fill="none" stroke="#000000" d="M 1159.4111472442894 1168.4492235978978 L 1149 1172 L 1158.8725708887723 1176.8510147439652" stroke-miterlimit="10"/></g><g transform="translate(-38,-366) scale(1,1)"><g><path fill="none" stroke="none"/><text fill="#000000" stroke="none" font-family="Arial" font-size="13px" font-style="normal" font-weight="normal" text-decoration="none" x="1236.5" y="1214.5">«include»</text></g></g><g transform="translate(-38,-366) scale(1,1)"><path fill="none" stroke="#000000" d="M 1412 1035 L 1137 1151" stroke-miterlimit="10" stroke-dasharray="3"/></g><g transform="translate(-38,-366) scale(1,1)"><path fill="none" stroke="#000000" d="M 1144.7276603210614 1143.1716370828703 L 1137 1151 L 1147.9997695200204 1150.928792511437" stroke-miterlimit="10"/></g><g transform="translate(-38,-366) scale(1,1)"><g><path fill="none" stroke="none"/><text fill="#000000" stroke="none" font-family="Arial" font-size="13px" font-style="normal" font-weight="normal" text-decoration="none" x="1257.5" y="1126.5">«include»</text></g></g><g transform="translate(-38,-366) scale(1,1)"><path fill="none" stroke="#000000" d="M 1433 891 L 1116 1151" stroke-miterlimit="10" stroke-dasharray="3"/></g><g transform="translate(-38,-366) scale(1,1)"><path fill="none" stroke="#000000" d="M 1121.1882022250636 1141.300383632749 L 1116 1151 L 1126.5272774837008 1147.8099484673182" stroke-miterlimit="10"/></g><g transform="translate(-38,-366) scale(1,1)"><g><path fill="none" stroke="none"/><text fill="#000000" stroke="none" font-family="Arial" font-size="13px" font-style="normal" font-weight="normal" text-decoration="none" x="1265.5" y="1050.5">«include»</text></g></g><g transform="translate(-38,-366) scale(1,1)"><path fill="none" stroke="#000000" d="M 708 579 L 1082 1151" stroke-miterlimit="10" stroke-dasharray="3"/></g><g transform="translate(-38,-366) scale(1,1)"><path fill="none" stroke="#000000" d="M 1072.9152442066973 1144.7978058579197 L 1082 1151 L 1079.9617211092323 1140.1904940370316" stroke-miterlimit="10"/></g><g transform="translate(-38,-366) scale(1,1)"><g><path fill="none" stroke="none"/><text fill="#000000" stroke="none" font-family="Arial" font-size="13px" font-style="normal" font-weight="normal" text-decoration="none" x="892.5" y="854.5">«include»</text></g></g><g transform="translate(-38,-366) scale(1,1)"><path fill="none" stroke="#000000" d="M 700 739 L 1078 1151" stroke-miterlimit="10" stroke-dasharray="3"/></g><g transform="translate(-38,-366) scale(1,1)"><path fill="none" stroke="#000000" d="M 1068.0277256468887 1146.3573989804984 L 1078 1151 L 1074.2313518442954 1140.6657225178292" stroke-miterlimit="10"/></g><g transform="translate(-38,-366) scale(1,1)"><path fill="none" stroke="#000000" d="M 704 907 L 1067 1151" stroke-miterlimit="10" stroke-dasharray="3"/></g><g transform="translate(-38,-366) scale(1,1)"><path fill="none" stroke="#000000" d="M 1056.2173230157766 1148.8242525298415 L 1067 1151 L 1060.91398177541 1141.837010194813" stroke-miterlimit="10"/></g><g transform="translate(-38,-366) scale(1,1)"><g><path fill="none" stroke="none"/><text fill="#000000" stroke="none" font-family="Arial" font-size="13px" font-style="normal" font-weight="normal" text-decoration="none" x="873.5" y="1010.5">«include»</text></g></g><g transform="translate(-38,-366) scale(1,1)"><path fill="none" stroke="#000000" d="M 808 1202 L 1039 1175" stroke-miterlimit="10" stroke-dasharray="3"/></g><g transform="translate(-38,-366) scale(1,1)"><path fill="none" stroke="#000000" d="M 1029.3947360635327 1180.3608679064869 L 1039 1175 L 1028.4173466857153 1171.9987587851595" stroke-miterlimit="10"/></g><g transform="translate(-38,-366) scale(1,1)"><g><path fill="none" stroke="none"/><text fill="#000000" stroke="none" font-family="Arial" font-size="13px" font-style="normal" font-weight="normal" text-decoration="none" x="891.5" y="1164.5">«include»</text></g></g><g transform="translate(-38,-366) scale(1,1)"><path fill="none" stroke="#000000" d="M 753 1083 L 1039 1155" stroke-miterlimit="10" stroke-dasharray="3"/></g><g transform="translate(-38,-366) scale(1,1)"><path fill="none" stroke="#000000" d="M 1028.1171510411991 1156.6011241488168 L 1039 1155 L 1030.1724979594528 1148.436829445753" stroke-miterlimit="10"/></g><g transform="translate(-38,-366) scale(1,1)"><g><path fill="none" stroke="none"/><text fill="#000000" stroke="none" font-family="Arial" font-size="13px" font-style="normal" font-weight="normal" text-decoration="none" x="875.5" y="1095.5">«include»</text></g></g><g transform="translate(-38,-366) scale(1,1)"><path fill="none" stroke="#000000" d="M 726 1359 L 1059 1187" stroke-miterlimit="10" stroke-dasharray="3"/></g><g transform="translate(-38,-366) scale(1,1)"><path fill="none" stroke="#000000" d="M 1051.9024733479232 1195.403875024241 L 1059 1187 L 1048.0388537567792 1187.9237277925492" stroke-miterlimit="10"/></g><g transform="translate(-38,-366) scale(1,1)"><g><path fill="none" stroke="none"/><text fill="#000000" stroke="none" font-family="Arial" font-size="13px" font-style="normal" font-weight="normal" text-decoration="none" x="850.5" y="1252.5">«include»</text></g></g><g transform="translate(-38,-366) scale(1,1)"><path fill="none" stroke="#000000" d="M 710 2023 L 1086 1187" stroke-miterlimit="10" stroke-dasharray="3"/></g><g transform="translate(-38,-366) scale(1,1)"><path fill="none" stroke="#000000" d="M 1085.6705346100862 1197.9950649182645 L 1086 1187 L 1077.9923478253347 1194.5417177519168" stroke-miterlimit="10"/></g><g transform="translate(-38,-366) scale(1,1)"><g><path fill="none" stroke="none"/><text fill="#000000" stroke="none" font-family="Arial" font-size="13px" font-style="normal" font-weight="normal" text-decoration="none" x="842.5" y="1598.5">«include»</text></g></g><g transform="translate(-38,-366) scale(1,1)"><path fill="none" stroke="#000000" d="M 710 2023 L 1086 1187" stroke-miterlimit="10" stroke-dasharray="3"/></g><g transform="translate(-38,-366) scale(1,1)"><path fill="none" stroke="#000000" d="M 1085.6705346100862 1197.9950649182645 L 1086 1187 L 1077.9923478253347 1194.5417177519168" stroke-miterlimit="10"/></g><g transform="translate(-38,-366) scale(1,1)"><g><path fill="none" stroke="none"/><text fill="#000000" stroke="none" font-family="Arial" font-size="13px" font-style="normal" font-weight="normal" text-decoration="none" x="842.5" y="1598.5">«include»</text></g></g><g transform="translate(-38,-366) scale(1,1)"><path fill="none" stroke="#000000" d="M 702 2119 L 1087 1187" stroke-miterlimit="10" stroke-dasharray="3"/></g><g transform="translate(-38,-366) scale(1,1)"><path fill="none" stroke="#000000" d="M 1087.0105522027245 1197.9999949386815 L 1087 1187 L 1079.2292905199436 1194.7856325482624" stroke-miterlimit="10"/></g><g transform="translate(-38,-366) scale(1,1)"><g><path fill="none" stroke="none"/><text fill="#000000" stroke="none" font-family="Arial" font-size="13px" font-style="normal" font-weight="normal" text-decoration="none" x="838.5" y="1647.5">«include»</text></g></g><g transform="translate(-38,-366) scale(1,1)"><path fill="none" stroke="#000000" d="M 696 1823 L 1083 1187" stroke-miterlimit="10" stroke-dasharray="3"/></g><g transform="translate(-38,-366) scale(1,1)"><path fill="none" stroke="#000000" d="M 1081.3133389501775 1197.8699206300237 L 1083 1187 L 1074.121155945658 1193.4935451225565" stroke-miterlimit="10"/></g><g transform="translate(-38,-366) scale(1,1)"><g><path fill="none" stroke="none"/><text fill="#000000" stroke="none" font-family="Arial" font-size="13px" font-style="normal" font-weight="normal" text-decoration="none" x="835.5" y="1495.5">«include»</text></g></g><g transform="translate(-38,-366) scale(1,1)"><path fill="none" stroke="#000000" d="M 693 1935 L 1085 1187" stroke-miterlimit="10" stroke-dasharray="3"/></g><g transform="translate(-38,-366) scale(1,1)"><path fill="none" stroke="#000000" d="M 1084.0111824340702 1197.955466207392 L 1085 1187 L 1076.5541159474676 1194.0474848400816" stroke-miterlimit="10"/></g><g transform="translate(-38,-366) scale(1,1)"><g><path fill="none" stroke="none"/><text fill="#000000" stroke="none" font-family="Arial" font-size="13px" font-style="normal" font-weight="normal" text-decoration="none" x="834.5" y="1553.5">«include»</text></g></g><g transform="translate(-38,-366) scale(1,1)"><path fill="none" stroke="#000000" d="M 697 1671 L 1080 1187" stroke-miterlimit="10" stroke-dasharray="3"/></g><g transform="translate(-38,-366) scale(1,1)"><path fill="none" stroke="#000000" d="M 1076.9946928459456 1197.5814993696447 L 1080 1187 L 1070.3926769724228 1192.3571768912166" stroke-miterlimit="10"/></g><g transform="translate(-38,-366) scale(1,1)"><g><path fill="none" stroke="none"/><text fill="#000000" stroke="none" font-family="Arial" font-size="13px" font-style="normal" font-weight="normal" text-decoration="none" x="836.5" y="1416.5">«include»</text></g></g><g transform="translate(-38,-366) scale(1,1)"><path fill="none" stroke="#000000" d="M 1452 739 L 1109 1151" stroke-miterlimit="10" stroke-dasharray="3"/></g><g transform="translate(-38,-366) scale(1,1)"><path fill="none" stroke="#000000" d="M 1112.2671279091842 1140.496387515477 L 1109 1151 L 1118.73738391435 1145.883032684826" stroke-miterlimit="10"/></g><g transform="translate(-38,-366) scale(1,1)"><g><path fill="none" stroke="none"/><text fill="#000000" stroke="none" font-family="Arial" font-size="13px" font-style="normal" font-weight="normal" text-decoration="none" x="1276.5" y="970.5">«extend»</text></g></g><g transform="translate(-38,-366) scale(1,1)"><path fill="none" stroke="#000000" d="M 117 1316 L 624 1495" stroke-miterlimit="10"/></g><g transform="translate(-38,-366) scale(1,1)"><path fill="none" stroke="#000000" d="M 613.0156231302399 1495.5860586856952 L 624 1495 L 615.8184665574555 1487.6472786991123" stroke-miterlimit="10"/></g><g transform="translate(-38,-366) scale(1,1)"><path fill="none" stroke="#000000" d="M 697 1495 L 1072 1187" stroke-miterlimit="10" stroke-dasharray="3"/></g><g transform="translate(-38,-366) scale(1,1)"><path fill="none" stroke="#000000" d="M 1066.8184293684135 1196.7031606082699 L 1072 1187 L 1061.4749056041583 1190.197246934258" stroke-miterlimit="10"/></g><g transform="translate(-38,-366) scale(1,1)"><g><path fill="none" stroke="none"/><text fill="#000000" stroke="none" font-family="Arial" font-size="13px" font-style="normal" font-weight="normal" text-decoration="none" x="836.5" y="1323.5">«include»</text></g></g><g transform="translate(-38,-366) scale(1,1)"><path fill="#C0C0C0" stroke="none" d="M 559 1520 C 559 1510.6111584 614.2928272 1503 682.5 1503 C 750.7071728 1503 806 1510.6111584 806 1520 C 806 1529.3888416 750.7071728 1537 682.5 1537 C 614.2928272 1537 559 1529.3888416 559 1520 Z" opacity="0.2"/></g><g transform="translate(-38,-366) scale(1,1)"><path fill="#ffffff" stroke="none" d="M 552 1513 C 552 1503.6111584 607.2928272 1496 675.5 1496 C 743.7071728 1496 799 1503.6111584 799 1513 C 799 1522.3888416 743.7071728 1530 675.5 1530 C 607.2928272 1530 552 1522.3888416 552 1513 Z"/></g><g transform="translate(-38,-366) scale(1,1)"><path fill="none" stroke="#000000" d="M 552 1513 C 552 1503.6111584 607.2928272 1496 675.5 1496 C 743.7071728 1496 799 1503.6111584 799 1513 C 799 1522.3888416 743.7071728 1530 675.5 1530 C 607.2928272 1530 552 1522.3888416 552 1513 Z" stroke-miterlimit="10"/></g><g transform="translate(-38,-366) scale(1,1)"><g><path fill="none" stroke="none"/><text fill="#000000" stroke="none" font-family="Arial" font-size="13px" font-style="normal" font-weight="bold" text-decoration="none" x="603.58740234375" y="1520">Duyệt yêu cầu nghỉ phép</text></g></g></g></svg>